<svg xmlns="http://www.w3.org/2000/svg" width="92.8" height="50.9" viewBox="0 0 92.8 50.9">
  <g id="Layer_2" data-name="Layer 2">
    <g id="Layer_1-2" data-name="Layer 1">
      <g>
        <path d="M67.3,0H8.1A8.1,8.1,0,0,0,0,8.1V42.8a8.1,8.1,0,0,0,8.1,8.1H67.3a8.4,8.4,0,0,0,5.8-2.4L90.4,31.2a8.1,8.1,0,0,0,0-11.5L73.1,2.4A8.4,8.4,0,0,0,67.3,0Z" style="fill: #67ac5a"/>
        <g>
          <path d="M24.4,33.3H21.3V25.9H13.4v7.4H10.3V16.5h3.1v7.2h7.9V16.5h3.1Z" style="fill: #fff"/>
          <path d="M32.6,21.2a7.1,7.1,0,0,1,2.1.3,4.6,4.6,0,0,1,1.6,1.1,4.2,4.2,0,0,1,1.1,1.7,7.3,7.3,0,0,1,.4,2.3.7.7,0,0,1-.1.5c0,.1,0,.3-.1.3a.2.2,0,0,1-.2.2H29.7a4.2,4.2,0,0,0,1,2.7,3.6,3.6,0,0,0,2.3.8h1.2l.9-.4.6-.4h.9l.2.2.9,1.1a4.4,4.4,0,0,1-1.1.9,3.1,3.1,0,0,1-1.3.6,2.8,2.8,0,0,1-1.3.3H32.7a5.9,5.9,0,0,1-2.3-.4,4.4,4.4,0,0,1-1.8-1.2,4.6,4.6,0,0,1-1.3-2,7.9,7.9,0,0,1-.4-2.8,6.2,6.2,0,0,1,.4-2.3,4.2,4.2,0,0,1,1.1-1.8,4.6,4.6,0,0,1,1.8-1.3A6.1,6.1,0,0,1,32.6,21.2Zm.1,2a2.6,2.6,0,0,0-2,.7,3.4,3.4,0,0,0-.9,2h5.4a3.6,3.6,0,0,0-.2-1,2.5,2.5,0,0,0-.4-.9l-.8-.6Z" style="fill: #fff"/>
          <path d="M40.1,33.3v-12h1.7a.7.7,0,0,1,.8.8l.2,1.4a5,5,0,0,1,1.5-1.7,2.8,2.8,0,0,1,1.9-.7,3.3,3.3,0,0,1,1.5.4l-.4,2.2a.4.4,0,0,1-.1.3H45.6a2.5,2.5,0,0,0-1.5.5A3.1,3.1,0,0,0,43,25.8v7.5Z" style="fill: #fff"/>
          <path d="M54.5,21.2a6.6,6.6,0,0,1,2.1.3,4.6,4.6,0,0,1,1.6,1.1,3.4,3.4,0,0,1,1.1,1.7,5.3,5.3,0,0,1,.4,2.3v.5a.5.5,0,0,0-.1.3l-.2.2H51.7a4.1,4.1,0,0,0,.9,2.7,3.6,3.6,0,0,0,2.3.8h1.2l.9-.4.7-.4h.8l.2.2.9,1.1a3.1,3.1,0,0,1-1.1.9,3.4,3.4,0,0,1-1.2.6l-1.3.3H54.7a5.6,5.6,0,0,1-2.3-.4,4.1,4.1,0,0,1-1.9-1.2,7.7,7.7,0,0,1-1.3-2,7.9,7.9,0,0,1-.4-2.8,6.2,6.2,0,0,1,.4-2.3,5.4,5.4,0,0,1,1.1-1.8,4.6,4.6,0,0,1,1.8-1.3A6.1,6.1,0,0,1,54.5,21.2Zm.1,2a2.6,2.6,0,0,0-2,.7,3.4,3.4,0,0,0-.9,2h5.4a3.4,3.4,0,0,0-.1-1,2.6,2.6,0,0,0-.5-.9l-.8-.6Z" style="fill: #fff"/>
        </g>
      </g>
    </g>
  </g>
</svg>
