<svg xmlns="http://www.w3.org/2000/svg" width="92.8" height="50.9" viewBox="0 0 92.8 50.9">
  <g id="Layer_2" data-name="Layer 2">
    <g id="Layer_1-2" data-name="Layer 1">
      <g>
        <path d="M67.3,0H8.1A8.1,8.1,0,0,0,0,8.1V42.8a8.1,8.1,0,0,0,8.1,8.1H67.3a8.4,8.4,0,0,0,5.8-2.4L90.4,31.2a8.1,8.1,0,0,0,0-11.5L73.1,2.4A8.4,8.4,0,0,0,67.3,0Z" style="fill: #67ac5a"/>
        <g>
          <path d="M28.4,6.5V8.7H24.1V20.8H21.4V8.7H17.1V6.5Z" style="fill: #fff"/>
          <path d="M31.8,23.6l-.3.4-.5.2H29.2l1.9-4.1-4.2-9.4h2.6l.3.3L32,16.4c0,.2.1.3.1.5s.1.4.2.6a1.4,1.4,0,0,1,.2-.6l.2-.5,2-5.3c.1-.1.1-.2.3-.3h2.3Z" style="fill: #fff"/>
          <path d="M38.8,24.2V10.7h1.9c.1,0,.2.2.2.3l.2,1a5.3,5.3,0,0,1,1.4-1.2,3.8,3.8,0,0,1,1.9-.4,4,4,0,0,1,1.5.3,4,4,0,0,1,1.2,1,6.7,6.7,0,0,1,.8,1.7,12.7,12.7,0,0,1,.2,2.2,7.6,7.6,0,0,1-.3,2.1,5.6,5.6,0,0,1-.9,1.7,3.5,3.5,0,0,1-1.3,1.1,3.9,3.9,0,0,1-1.8.4,3.3,3.3,0,0,1-1.5-.3,2.6,2.6,0,0,1-1.1-.7v4.2Zm4.7-11.8a2.8,2.8,0,0,0-1.3.3l-1,.9v4.6a2.8,2.8,0,0,0,.9.7,2.2,2.2,0,0,0,1.1.2,1.6,1.6,0,0,0,1-.2,2.1,2.1,0,0,0,.8-.6,3.6,3.6,0,0,0,.4-1.1,6.1,6.1,0,0,0,.2-1.5,6.6,6.6,0,0,0-.1-1.5,1.9,1.9,0,0,0-.5-1,.9.9,0,0,0-.6-.6Z" style="fill: #fff"/>
          <path d="M54.2,10.5l1.8.3a4.2,4.2,0,0,1,1.4.9,5.4,5.4,0,0,1,.9,1.5,5.4,5.4,0,0,1,.3,1.9v.8H51.7a3.7,3.7,0,0,0,.9,2.3,2.5,2.5,0,0,0,1.9.7h1.1l.7-.3.6-.4h.9l.7.9-.9.8-1.1.5a2,2,0,0,1-1.1.3H54.3a4.5,4.5,0,0,1-2-.4,3.9,3.9,0,0,1-1.6-1,4.8,4.8,0,0,1-1-1.7,6.1,6.1,0,0,1-.4-2.4,5.8,5.8,0,0,1,.3-1.9,6.2,6.2,0,0,1,1-1.6,4.2,4.2,0,0,1,1.5-1.1A4.6,4.6,0,0,1,54.2,10.5Zm0,1.8a2.1,2.1,0,0,0-1.6.6,2.7,2.7,0,0,0-.8,1.7h4.6a2.8,2.8,0,0,0-.1-.9c-.1-.3-.3-.5-.4-.8l-.7-.5Z" style="fill: #fff"/>
          <path d="M31.1,28.5v2.2H26.7V42.8H24.1V30.7H19.7V28.5Z" style="fill: #fff"/>
          <path d="M32.6,42.8V28.1h2.5v5.7a3.8,3.8,0,0,1,1.3-.9,3.1,3.1,0,0,1,1.7-.4,3.2,3.2,0,0,1,1.4.3,2.3,2.3,0,0,1,1.1.8,3.5,3.5,0,0,1,.7,1.2,7.8,7.8,0,0,1,.2,1.6v6.4H39V36.4a2.2,2.2,0,0,0-.4-1.5,1.7,1.7,0,0,0-1.3-.5,2.7,2.7,0,0,0-1.2.3,3.9,3.9,0,0,0-1,.8v7.3Z" style="fill: #fff"/>
          <path d="M46.9,29.7a1.4,1.4,0,0,1-.2.6c0,.2-.2.3-.3.5l-.5.3H44.7l-.5-.3c-.1-.2-.3-.3-.3-.5a1,1,0,0,1,0-1.2.9.9,0,0,1,.3-.5.5.5,0,0,1,.5-.3l.6-.2.6.2a.5.5,0,0,1,.5.3.9.9,0,0,1,.3.5A1.4,1.4,0,0,1,46.9,29.7Zm-.4,3V42.8H44.1V32.7Z" style="fill: #fff"/>
          <path d="M55.3,34.6l-.2.3h-.7l-.4-.2-.6-.2h-.8a2.1,2.1,0,0,0-1.2.3.9.9,0,0,0-.4.8,1.4,1.4,0,0,0,.2.6l.6.3a1.1,1.1,0,0,0,.8.3l.9.3.9.4.8.5.6.8a3,3,0,0,1,.2,1,3.2,3.2,0,0,1-.3,1.4,2.5,2.5,0,0,1-.8,1,2.4,2.4,0,0,1-1.2.7,5.2,5.2,0,0,1-1.8.3h-1a2.9,2.9,0,0,1-1-.3,2,2,0,0,1-.8-.4l-.7-.4.5-1,.3-.2H50l.5.3.6.3h1.7l.5-.3.3-.4a.6.6,0,0,0,.1-.4.8.8,0,0,0-.2-.6l-.6-.4-.8-.3-.9-.3-.9-.4-.8-.5a2.1,2.1,0,0,1-.6-.8,2.3,2.3,0,0,1-.2-1.2,5,5,0,0,1,.2-1.2,2.5,2.5,0,0,1,.8-1,3.4,3.4,0,0,1,1.2-.6,4.6,4.6,0,0,1,3.5.1,3.8,3.8,0,0,1,1.5.9Z" style="fill: #fff"/>
        </g>
      </g>
    </g>
  </g>
</svg>
